<!DOCTYPE svg PUBLIC "-//W3C//DTD SVG 1.1//EN" "http://www.w3.org/Graphics/SVG/1.1/DTD/svg11.dtd">
<!-- Uploaded to: SVG Repo, www.svgrepo.com, Transformed by: SVG Repo Mixer Tools -->
<svg width="800px" height="800px" viewBox="-30.72 -30.72 189.44 189.44" xmlns="http://www.w3.org/2000/svg" xmlns:xlink="http://www.w3.org/1999/xlink" aria-hidden="true" role="img" class="iconify iconify--noto" preserveAspectRatio="xMidYMid meet" fill="#000000" stroke="#000000" stroke-width="0.8960000000000001">
<g id="SVGRepo_bgCarrier" stroke-width="0"/>
<g id="SVGRepo_tracerCarrier" stroke-linecap="round" stroke-linejoin="round" stroke="#CCCCCC" stroke-width="4.864">
<path d="M102.89 99.51H57.24v-82c0-1.24-1-2.24-2.24-2.24H33.11c-1.24 0-2.24 1-2.24 2.24v100.96c0 1.24 1 2.24 2.24 2.24h69.79c1.24 0 2.24-1 2.24-2.24v-16.72a2.251 2.251 0 0 0-2.25-2.24z" fill="#e7da40"/>
</g>
<g id="SVGRepo_iconCarrier">
<path d="M102.89 99.51H57.24v-82c0-1.24-1-2.24-2.24-2.24H33.11c-1.24 0-2.24 1-2.24 2.24v100.96c0 1.24 1 2.24 2.24 2.24h69.79c1.24 0 2.24-1 2.24-2.24v-16.72a2.251 2.251 0 0 0-2.25-2.24z" fill="#e7da40"/>
</g>
</svg>